<svg xmlns="http://www.w3.org/2000/svg" fill="#ffffff" width="800px" height="800px" viewBox="0 0 1024 1024"><path d="M92.16 196.608h147.456c11.311 0 20.48-9.169 20.48-20.48s-9.169-20.48-20.48-20.48H92.16c-11.311 0-20.48 9.169-20.48 20.48s9.169 20.48 20.48 20.48z" fill="#ffffff"/><path d="M145.408 102.4v147.456c0 11.311 9.169 20.48 20.48 20.48s20.48-9.169 20.48-20.48V102.4c0-11.311-9.169-20.48-20.48-20.48s-20.48 9.169-20.48 20.48zm641.024 336.925h147.456c11.311 0 20.48-9.169 20.48-20.48s-9.169-20.48-20.48-20.48H786.432c-11.311 0-20.48 9.169-20.48 20.48s9.169 20.48 20.48 20.48z" fill="#ffffff"/><path d="M839.68 345.117v147.456c0 11.311 9.169 20.48 20.48 20.48s20.48-9.169 20.48-20.48V345.117c0-11.311-9.169-20.48-20.48-20.48s-20.48 9.169-20.48 20.48zm-595.968-16.384h102.4c11.311 0 20.48-9.169 20.48-20.48s-9.169-20.48-20.48-20.48h-102.4c-11.311 0-20.48 9.169-20.48 20.48s9.169 20.48 20.48 20.48z" fill="#ffffff"/><path d="M274.432 257.053v102.4c0 11.311 9.169 20.48 20.48 20.48s20.48-9.169 20.48-20.48v-102.4c0-11.311-9.169-20.48-20.48-20.48s-20.48 9.169-20.48 20.48zm-87.011 339.254L498.635 289.25c8.084-7.975 21.076-7.955 29.134.046L836.81 596.258c8.025 7.971 20.992 7.927 28.963-.098s7.927-20.992-.098-28.963L556.632 260.233c-23.996-23.827-62.694-23.889-86.764-.141L158.654 567.149c-8.052 7.944-8.139 20.911-.195 28.962s20.911 8.139 28.962.195z" fill="#ffffff"/><path d="M727.323 481.141v417.577c0 11.521-9.341 20.859-20.869 20.859H317.826c-11.528 0-20.869-9.338-20.869-20.859V481.141c0-11.311-9.169-20.48-20.48-20.48s-20.48 9.169-20.48 20.48v417.577c0 34.146 27.683 61.819 61.829 61.819h388.628c34.146 0 61.829-27.673 61.829-61.819V481.141c0-11.311-9.169-20.48-20.48-20.48s-20.48 9.169-20.48 20.48z" fill="#ffffff"/><path d="M462.337 933.445V747.394c0-27.345 22.462-49.807 49.807-49.807 27.342 0 49.797 22.459 49.797 49.807v186.051c0 11.311 9.169 20.48 20.48 20.48s20.48-9.169 20.48-20.48V747.394c0-49.968-40.791-90.767-90.757-90.767-49.967 0-90.767 40.801-90.767 90.767v186.051c0 11.311 9.169 20.48 20.48 20.48s20.48-9.169 20.48-20.48z" fill="#ffffff"/></svg>