<svg xmlns="http://www.w3.org/2000/svg" xmlns:xlink="http://www.w3.org/1999/xlink" fill="#ffffff" height="800px" width="800px" version="1.1" id="Layer_1" viewBox="0 0 512.001 512.001" xml:space="preserve">
<g>
	<g>
		<path d="M397.894,93.136H293.705l-0.191-21.91c0-0.047-0.007-0.091-0.008-0.138l-0.187-21.481l13.75-0.12    c4.194-0.036,7.563-3.466,7.527-7.659l-0.3-34.302c-0.018-2.014-0.834-3.938-2.271-5.349c-1.437-1.411-3.351-2.204-5.388-2.177    l-90.052,0.788c-0.526-0.115-1.072-0.18-1.633-0.18c-54.875,0-98.219,40.256-100.793,92.528h-0.054    c-18.701,0-33.914,15.214-33.914,33.914v208.012v68.606v51.401c0,17.364,13.12,31.713,29.966,33.677v15.66    c0,4.194,3.398,7.593,7.593,7.593h280.785c4.194,0,7.593-3.398,7.593-7.593v-16.439c14.734-3.689,25.682-17.037,25.682-32.899    v-51.401v-68.606V127.051C431.809,108.35,416.595,93.136,397.894,93.136z M299.176,15.252l0.166,19.117l-30.194,0.264    l-34.167,0.299c-0.004,0-0.008,0.001-0.012,0.001l-14.717,0.129l-0.167-19.117L299.176,15.252z M278.394,78.952l0.122,14.025    l-18.109,0.158h-17.319v0.001l-0.121-13.875L278.394,78.952z M242.829,64.074l-0.122-14.025l32.894-0.287l2.532-0.021    l0.122,14.025l-33.869,0.296L242.829,64.074z M207.403,48.136c1.42,1.396,3.332,2.177,5.322,2.177c0.021,0,0.045,0,0.066,0    l14.73-0.129l0.189,21.618c0,0.039,0.006,0.078,0.007,0.118l0.186,21.217h-68.479c2.336-24.401,21.863-43.317,47.227-45.875    C206.881,47.569,207.127,47.864,207.403,48.136z M204.902,16.348l0.138,15.81c-33.114,3.343-58.487,28.603-60.843,60.978h-14.817    C131.765,52.602,163.406,20.807,204.902,16.348z M95.375,127.051c0-10.327,8.402-18.729,18.729-18.729h119.684    c0.571,0.137,1.163,0.218,1.775,0.218c0.021,0,0.045,0,0.067,0l24.909-0.218h137.354c10.327,0,18.729,8.402,18.729,18.729V327.47    H95.375V127.051z M125.34,496.814v-7.83h265.6v7.83H125.34z M416.622,455.069c0.001,10.328-8.401,18.729-18.728,18.729H117.748    h-3.645c-10.327,0-18.729-8.402-18.729-18.729v-43.808h321.248V455.069z M416.623,396.075H95.375v-53.421h321.248V396.075z" fill="#ffffff"/>
	</g>
</g>
<g>
	<g>
		<path d="M313.062,159.201H207.868c-17.321,0-31.412,14.091-31.412,31.412v6.945c0,17.321,14.091,31.412,31.412,31.412h105.194    c17.321,0,31.412-14.091,31.412-31.412v-6.945C344.474,173.292,330.382,159.201,313.062,159.201z M329.288,197.556    c0,8.947-7.279,16.226-16.226,16.226H207.868c-8.947,0-16.226-7.279-16.226-16.226v-6.945c0-8.947,7.279-16.226,16.226-16.226    h105.194c8.947,0,16.226,7.279,16.226,16.226V197.556z" fill="#ffffff"/>
	</g>
</g>
</svg>